<?xml version="1.0" standalone="no"?><!DOCTYPE svg PUBLIC "-//W3C//DTD SVG 1.1//EN" "http://www.w3.org/Graphics/SVG/1.1/DTD/svg11.dtd"><svg width="32" height="32" viewBox="0 0 32 32" version="1.1" xmlns="http://www.w3.org/2000/svg" xmlns:xlink="http://www.w3.org/1999/xlink"><defs><style type="text/css"><![CDATA[
@font-face { font-family: ifont; src: url("//at.alicdn.com/t/font_1442373896_4754455.eot?#iefix") format("embedded-opentype"), url("//at.alicdn.com/t/font_1442373896_4754455.woff") format("woff"), url("//at.alicdn.com/t/font_1442373896_4754455.ttf") format("truetype"), url("//at.alicdn.com/t/font_1442373896_4754455.svg#ifont") format("svg"); }

]]></style></defs><g class="transform-group"><g transform="scale(0.03125, 0.03125)"><path d="M886.56 217.92 136.352 217.92c-44.32 0-80.352 33.312-80.352 74.272l0 445.568c0 40.96 36.032 74.272 80.352 74.272l750.208 0c44.288 0 80.352-33.312 80.352-74.272L966.912 292.192C966.912 251.232 930.784 217.92 886.56 217.92L886.56 217.92 886.56 217.92zM109.6 737.76 109.6 301.696l236.64 218.624-0.256 0-236.416 218.464L109.568 737.76 109.6 737.76 109.6 737.76zM148.288 267.456l726.304 0L511.488 603.008 148.288 267.456 148.288 267.456 148.288 267.456zM383.936 555.232l127.488 117.824 128.096-118.368 225.024 207.904L159.616 762.592 383.936 555.232 383.936 555.232 383.936 555.232zM678.24 520.32l-1.536 0 236.64-218.624 0 435.872L678.24 520.32 678.24 520.32 678.24 520.32zM678.24 520.32" fill="#1C538F"></path></g></g></svg>