<?xml version="1.0" standalone="no"?><!DOCTYPE svg PUBLIC "-//W3C//DTD SVG 1.1//EN" "http://www.w3.org/Graphics/SVG/1.1/DTD/svg11.dtd"><svg width="32" height="32" viewBox="0 0 32 32" version="1.1" xmlns="http://www.w3.org/2000/svg" xmlns:xlink="http://www.w3.org/1999/xlink"><defs><style type="text/css"><![CDATA[
@font-face { font-family: ifont; src: url("//at.alicdn.com/t/font_1442373896_4754455.eot?#iefix") format("embedded-opentype"), url("//at.alicdn.com/t/font_1442373896_4754455.woff") format("woff"), url("//at.alicdn.com/t/font_1442373896_4754455.ttf") format("truetype"), url("//at.alicdn.com/t/font_1442373896_4754455.svg#ifont") format("svg"); }

]]></style></defs><g class="transform-group"><g transform="scale(0.03125, 0.03125)"><path d="M842.385151 955.400622 175.765631 955.400622c-61.347207 0-111.090121-49.800219-111.090121-111.186312L64.67551 177.179328c0-61.385069 50.464345-116.427686 111.832018-116.427686l670.986991 0c61.365626 0 111.829971 50.444902 111.829971 111.832018l0 670.986991C959.32449 904.954697 903.731334 955.400622 842.385151 955.400622zM903.410016 172.58366c0-30.694069-25.242917-55.916521-55.916521-55.916521L176.506505 116.66714c-30.673603 0-56.276724 29.818119-56.276724 60.512189l0 667.033959c0 30.693046 24.880667 55.612599 55.534827 55.612599l666.620543 0c30.674627 0 61.024865-25.564235 61.024865-56.256258L903.410016 172.58366zM735.661478 675.822113 288.337499 675.822113c-15.439644 0-27.956725-12.535501-27.956725-27.956725 0-15.461133 12.517081-27.956725 27.956725-27.956725l447.325002 0c15.442714 0 27.958772 12.495592 27.958772 27.956725C763.620249 663.286612 751.104191 675.822113 735.661478 675.822113zM735.661478 508.075621 288.337499 508.075621c-15.439644 0-27.956725-12.533454-27.956725-27.956725 0-15.459087 12.517081-27.958772 27.956725-27.958772l447.325002 0c15.442714 0 27.958772 12.499685 27.958772 27.958772C763.620249 495.542166 751.104191 508.075621 735.661478 508.075621zM735.661478 340.330152 288.337499 340.330152c-15.439644 0-27.956725-12.536524-27.956725-27.959795 0-15.459087 12.517081-27.956725 27.956725-27.956725l447.325002 0c15.442714 0 27.958772 12.497639 27.958772 27.956725C763.620249 327.793628 751.104191 340.330152 735.661478 340.330152z" fill="#1C538F"></path></g></g></svg>