<?xml version="1.0" standalone="no"?><!DOCTYPE svg PUBLIC "-//W3C//DTD SVG 1.1//EN" "http://www.w3.org/Graphics/SVG/1.1/DTD/svg11.dtd"><svg width="32" height="32" viewBox="0 0 32 32" version="1.1" xmlns="http://www.w3.org/2000/svg" xmlns:xlink="http://www.w3.org/1999/xlink"><defs><style type="text/css"><![CDATA[
@font-face { font-family: ifont; src: url("//at.alicdn.com/t/font_1442373896_4754455.eot?#iefix") format("embedded-opentype"), url("//at.alicdn.com/t/font_1442373896_4754455.woff") format("woff"), url("//at.alicdn.com/t/font_1442373896_4754455.ttf") format("truetype"), url("//at.alicdn.com/t/font_1442373896_4754455.svg#ifont") format("svg"); }

]]></style></defs><g class="transform-group"><g transform="scale(0.03125, 0.03125)"><path d="M291.219129 181.958168c0-30.725792 24.907273-55.633065 55.632041-55.633065l330.297658 0c30.724769 0 55.632041 24.907273 55.632041 55.633065l0 660.08264c0 30.725792-24.907273 55.633065-55.632041 55.633065L346.851171 897.673873c-30.724769 0-55.632041-24.907273-55.632041-55.633065L291.219129 181.958168zM707.890994 208.568223l0-21.164019c0-20.037359-16.242939-36.281321-36.281321-36.281321L352.391351 151.122883c-20.038382 0-36.282345 16.243963-36.282345 36.281321l0 21.164019L707.890994 208.568223zM315.857273 815.561737l0 21.165042c0 20.037359 16.243963 36.281321 36.282345 36.281321l319.218322 0c20.038382 0 36.282345-16.243963 36.282345-36.281321l0-21.165042L315.857273 815.561737zM707.890994 233.984079 316.109006 233.984079l0 555.400462 391.781988 0L707.890994 233.984079z" fill="#1C538F"></path></g></g></svg>