<?xml version="1.0" standalone="no"?><!DOCTYPE svg PUBLIC "-//W3C//DTD SVG 1.1//EN" "http://www.w3.org/Graphics/SVG/1.1/DTD/svg11.dtd"><svg width="32.03125" height="32" viewBox="0 0 32.03125 32" version="1.1" xmlns="http://www.w3.org/2000/svg" xmlns:xlink="http://www.w3.org/1999/xlink"><defs><style type="text/css"><![CDATA[
@font-face { font-family: ifont; src: url("//at.alicdn.com/t/font_1442373896_4754455.eot?#iefix") format("embedded-opentype"), url("//at.alicdn.com/t/font_1442373896_4754455.woff") format("woff"), url("//at.alicdn.com/t/font_1442373896_4754455.ttf") format("truetype"), url("//at.alicdn.com/t/font_1442373896_4754455.svg#ifont") format("svg"); }

]]></style></defs><g class="transform-group"><g transform="scale(0.03125, 0.03125)"><path d="M884.362004 585.14914 884.362004 585.14914c32.270869 0 61.211237-18.378621 75.231004-46.837093 5.601671-11.371036 8.550613-23.88955 8.550613-36.944525 0-46.271249-37.510169-83.781618-83.781618-83.781618s-83.781618 37.510368-83.781618 83.781618C800.580386 547.638971 838.090755 585.14914 884.362004 585.14914L884.362004 585.14914zM884.362004 641.003552 884.362004 641.003552c-77.118815 0-139.636029-62.517214-139.636029-139.636029 0-77.118815 62.517214-139.636029 139.636029-139.636029 77.118815 0 139.636029 62.517214 139.636029 139.636029 0 22.121064-5.143759 43.040484-14.300591 61.627775C986.931385 609.207783 939.359955 641.003552 884.362004 641.003552L884.362004 641.003552zM856.434798 398.967834 856.434798 398.967834 856.434798 54.592791c0-15.598573 12.503523-27.987568 27.927206-27.987568 15.531215 0 27.927206 12.346822 27.927206 27.577826l0 57.366459L912.28921 398.967834 856.434798 398.967834zM856.434798 905.363405l0-301.595995 55.854412 0 0 344.374844c0 15.457262-12.395991 27.987568-27.927206 27.987568-15.423683 0-27.927206-12.359014-27.927206-27.816076L856.434798 905.363405zM511.999392 436.204175 511.999392 436.204175c32.270869 0 61.211237-18.378621 75.231004-46.837093 5.601671-11.371036 8.550613-23.88955 8.550613-36.944525 0-46.271249-37.510169-83.781618-83.781618-83.781618-46.271249 0-83.781618 37.510169-83.781618 83.781618S465.728143 436.204175 511.999392 436.204175L511.999392 436.204175zM511.999392 492.058387 511.999392 492.058387c-77.118815 0-139.636029-62.517214-139.636029-139.636029s62.517214-139.636029 139.636029-139.636029 139.636029 62.517214 139.636029 139.636029c0 22.120864-5.143759 43.040484-14.300591 61.627775C614.568774 460.262619 566.997344 492.058387 511.999392 492.058387L511.999392 492.058387zM484.072187 473.440317l55.854412 0 0 493.320008c0 15.457262-12.395991 27.987568-27.927206 27.987568-15.423683 0-27.927206-12.359014-27.927206-27.816076l0-42.950541L484.072187 473.440317zM139.636781 734.094305 139.636781 734.094305c32.270669 0 61.211237-18.378621 75.231004-46.837093 5.601871-11.371036 8.550613-23.88955 8.550613-36.944525 0-46.271249-37.510368-83.781618-83.781618-83.781618s-83.781618 37.510169-83.781618 83.781618C55.855163 696.583936 93.365532 734.094305 139.636781 734.094305L139.636781 734.094305zM139.636781 789.948716 139.636781 789.948716c-77.118815 0-139.636029-62.517214-139.636029-139.636029 0-77.118815 62.517214-139.636029 139.636029-139.636029s139.636029 62.517214 139.636029 139.636029c0 22.120864-5.143759 43.040484-14.300591 61.627775C242.206162 758.152748 194.634532 789.948716 139.636781 789.948716L139.636781 789.948716zM111.709575 771.330646l55.854412 0 0 195.429879c0 15.457262-12.395991 27.987568-27.927206 27.987568-15.423683 0-27.927206-12.359014-27.927206-27.816076l0-42.950541L111.709575 771.330646zM484.072187 54.901196c0-15.627555 12.395991-28.295974 27.927206-28.295974 15.423683 0 27.927206 12.652029 27.927206 28.295974l0 195.121673-55.854412 0L484.072187 54.901196zM111.709575 54.632965c0-15.479248 12.395991-28.027743 27.927206-28.027743 15.423683 0 27.927206 12.372006 27.927206 28.027743l0 493.280034-55.854412 0L111.709575 54.632965z" fill="#1C538F"></path></g></g></svg>