<?xml version="1.0" standalone="no"?><!DOCTYPE svg PUBLIC "-//W3C//DTD SVG 1.1//EN" "http://www.w3.org/Graphics/SVG/1.1/DTD/svg11.dtd"><svg width="32" height="32" viewBox="0 0 32 32" version="1.1" xmlns="http://www.w3.org/2000/svg" xmlns:xlink="http://www.w3.org/1999/xlink"><defs><style type="text/css"><![CDATA[
@font-face { font-family: ifont; src: url("//at.alicdn.com/t/font_1442373896_4754455.eot?#iefix") format("embedded-opentype"), url("//at.alicdn.com/t/font_1442373896_4754455.woff") format("woff"), url("//at.alicdn.com/t/font_1442373896_4754455.ttf") format("truetype"), url("//at.alicdn.com/t/font_1442373896_4754455.svg#ifont") format("svg"); }

]]></style></defs><g class="transform-group"><g transform="scale(0.03125, 0.03125)"><path d="M915.926074 439.283862 106.745674 439.283862c-7.717775 0-14.606673-5.030573-16.879436-12.472056-2.27481-7.371898 0.550539-15.364943 6.889921-19.774369l404.416749-276.91382c5.994528-4.064572 13.916964-4.064572 19.913539 0l404.796396 276.91382c6.372128 4.41045 9.196453 12.403494 6.888897 19.774369C930.500001 434.253288 923.641803 439.283862 915.926074 439.283862L915.926074 439.283862zM163.796018 404.00538 858.874707 404.00538 511.129678 166.087713 163.796018 404.00538 163.796018 404.00538zM208.653669 787.993868c-9.785877 0-17.639752-7.925507-17.639752-17.638729L191.013917 435.218266c0-9.784854 7.853875-17.637706 17.639752-17.637706 9.713222 0 17.638729 7.852852 17.638729 17.637706l0 335.136873C226.292398 780.068362 218.366891 787.993868 208.653669 787.993868L208.653669 787.993868zM813.951565 787.993868c-9.750061 0-17.638729-7.925507-17.638729-17.638729L796.312836 435.218266c0-9.784854 7.888667-17.637706 17.638729-17.637706 9.751085 0 17.637706 7.852852 17.637706 17.637706l0 335.136873C831.58927 780.068362 823.70265 787.993868 813.951565 787.993868L813.951565 787.993868zM359.925954 787.993868c-9.749038 0-17.602913-7.925507-17.602913-17.638729L342.323041 435.218266c0-9.784854 7.853875-17.637706 17.602913-17.637706 9.715269 0 17.60496 7.852852 17.60496 17.637706l0 335.136873C377.529891 780.068362 369.641223 787.993868 359.925954 787.993868L359.925954 787.993868zM511.129678 787.993868c-9.750061 0-17.638729-7.925507-17.638729-17.638729L493.490949 435.218266c0-9.784854 7.888667-17.637706 17.638729-17.637706 9.749038 0 17.638729 7.852852 17.638729 17.637706l0 335.136873C528.76943 780.068362 520.87974 787.993868 511.129678 787.993868L511.129678 787.993868zM662.506341 787.993868c-9.748015 0-17.637706-7.925507-17.637706-17.638729L644.868635 435.218266c0-9.784854 7.889691-17.637706 17.637706-17.637706 9.749038 0 17.638729 7.852852 17.638729 17.637706l0 335.136873C680.14507 780.068362 672.255379 787.993868 662.506341 787.993868L662.506341 787.993868zM870.519931 792.404318 152.153864 792.404318c-9.784854 0-17.638729-7.925507-17.638729-17.637706 0-9.785877 7.853875-17.638729 17.638729-17.638729L870.519931 757.127883c9.749038 0 17.638729 7.852852 17.638729 17.638729C888.159684 784.478811 880.269993 792.404318 870.519931 792.404318L870.519931 792.404318zM941.075871 893.827265 81.598948 893.827265c-9.785877 0-17.638729-7.925507-17.638729-17.638729 0-9.784854 7.852852-17.638729 17.638729-17.638729l859.476923 0c9.749038 0 17.637706 7.854898 17.637706 17.638729C958.713576 885.901759 950.824909 893.827265 941.075871 893.827265L941.075871 893.827265z" fill="#1C538F"></path></g></g></svg>